<svg version="1.1" id="cart_icon" xmlns="http://www.w3.org/2000/svg" xmlns:xlink="http://www.w3.org/1999/xlink" x="0px" y="0px"
	 viewBox="0 0 356.9 391.9" enable-background="new 0 0 356.9 391.9" xml:space="preserve">
<g>
	<g>
		<defs>
			<rect id="SVGID_1_" x="0" y="0" width="356.9" height="391.9"/>
		</defs>
		<clipPath id="SVGID_2_">
			<use xlink:href="#SVGID_1_"  overflow="visible"/>
		</clipPath>
		<path clip-path="url(#SVGID_2_)" d="M336.6,140.9L88.6,117.8c-1.4-0.2-2.6-0.2-3.9-0.1l-9.9-48c-0.2-1-0.5-1.9-0.9-2.7
			c-1.5-3.8-4.7-7-9-8.2L17.7,44.8c-7.3-2.2-15,2-17.1,9.4c-2.2,7.3,2,15,9.4,17.1l39.4,11.6l47.4,228.6c0.9,6.7,6.6,11.9,13.7,11.9
			l204-0.1c7.6,0,13.8-6.2,13.8-13.8c0-7.6-6.2-13.8-13.8-13.8l-192.7,0.1l-6.6-31.6h202.9c10.6,0,19.8-7,21.8-16.7l16.4-82.6
			C358.4,153.1,349.4,142.1,336.6,140.9L336.6,140.9z M336.6,140.9"/>
	</g>
	<path d="M177.2,363.4c0,15.2-12.3,27.5-27.5,27.5c-15.2,0-27.5-12.3-27.5-27.5s12.3-27.5,27.5-27.5
		C164.9,335.9,177.2,348.2,177.2,363.4L177.2,363.4z M177.2,363.4"/>
	<g>
		<defs>
			<rect id="SVGID_3_" x="0" y="0" width="356.9" height="391.9"/>
		</defs>
		<clipPath id="SVGID_4_">
			<use xlink:href="#SVGID_3_"  overflow="visible"/>
		</clipPath>
		<path clip-path="url(#SVGID_4_)" d="M308.7,363.4c0,15.2-12.3,27.5-27.5,27.5c-15.2,0-27.5-12.3-27.5-27.5s12.3-27.5,27.5-27.5
			C296.4,335.9,308.7,348.2,308.7,363.4L308.7,363.4z M308.7,363.4"/>
		<path clip-path="url(#SVGID_4_)" d="M126.1,107.1l3.1,0.3l9.8,0.9l40.2,3.8l1.4-15.4c2-20.9,20.5-36.2,41.4-34.2
			c20.9,2,36.2,20.5,34.2,41.4l-1.4,15.4l40.2,3.8l12.8,1.2c4.7,0.5,9-3,9.4-7.8l1.3-13.8c0.5-4.7-3-9-7.8-9.4l-12.8-1.2
			c-1-10.6-4.2-20.7-9.2-29.8l9.9-8.2c3.7-3,4.2-8.5,1.1-12.2l-8.8-10.6c-3-3.7-8.5-4.2-12.2-1.1l-10,8.2
			c-8-6.5-17.3-11.5-27.5-14.6l1.2-12.8c0.5-4.7-3-9-7.8-9.4l-13.8-1.3c-4.7-0.5-9,3-9.4,7.8l-1.2,12.8c-10.6,1-20.7,4.2-29.8,9.2
			l-8.2-9.9c-3-3.7-8.5-4.2-12.2-1.1l-10.6,8.8c-3.7,3-4.2,8.5-1.1,12.2l8.2,9.9c-6.5,8-11.5,17.3-14.6,27.5l-12.8-1.2
			c-4.7-0.5-9,3-9.4,7.8l-1.3,13.8C117.9,102.5,121.4,106.6,126.1,107.1L126.1,107.1z M126.1,107.1"/>
	</g>
</g>
</svg>
