<svg version="1.1" id="logo" xmlns="http://www.w3.org/2000/svg" xmlns:xlink="http://www.w3.org/1999/xlink" x="0px" y="0px"
	 viewBox="0 0 358.1 257.8" enable-background="new 0 0 358.1 257.8" xml:space="preserve">
<g>
	<g>
		<g>
			<path d="M280.2,47.2l-25.3,14.6c-2.9-3.3-6-6.4-9.2-9.2l14.6-25.2l-34.4-20l-14.6,25.3c-4.2-1.4-8.4-2.6-12.8-3.5
				l0-29.2l-39.8,0l0,29.2c0,0,0,0,0,0c-1,0.2-2,0.4-2.9,0.6c-0.4,0.1-0.9,0.2-1.3,0.3c-0.5,0.1-1,0.3-1.5,0.4
				c-0.9,0.2-1.8,0.5-2.7,0.7c-0.1,0-0.1,0-0.2,0.1c-1.3,0.4-2.6,0.8-3.9,1.2L131.5,7.2L97,27.1l14.6,25.3c-3.4,2.9-6.5,6.1-9.4,9.4
				L76.8,47.2L56.9,81.6l7.6,4.4l66.6,1.3C143,74.6,160,66.7,178.8,67.1c18.8,0.4,35.5,8.9,46.8,22.1l59.6,1.2l14.9-8.6L280.2,47.2z
				"/>
			<path d="M254.8,196l25.3,14.6l19.9-34.5l-7.6-4.4l-65.7-1.3c-11.9,14.6-30.1,23.7-50.3,23.3
				c-20.2-0.4-38.1-10.2-49.4-25.2l-55.2-1.1L56.9,176l19.9,34.5l25.3-14.6c2.9,3.3,6,6.4,9.2,9.2l-14.6,25.3l34.4,20l14.6-25.2
				c4.2,1.4,8.4,2.6,12.8,3.5l0,29.2l39.8,0l0-29.2c1.1-0.2,2.2-0.5,3.4-0.7c0.3-0.1,0.6-0.1,0.9-0.2c0.7-0.2,1.4-0.4,2-0.5
				c0.7-0.2,1.5-0.4,2.2-0.6c0.2-0.1,0.5-0.2,0.7-0.2c1.1-0.3,2.3-0.7,3.4-1.1l14.5,25.3l34.5-19.8l-14.5-25.3
				C248.8,202.4,251.9,199.3,254.8,196z"/>
		</g>
		<g>
			<text transform="matrix(1 0 0 1 0.6495 153.4232)" font-family="'MagistralBold'" font-size="65">TRIAL BIKE</text>
		</g>
	</g>
</g>
</svg>
